<svg xmlns="http://www.w3.org/2000/svg" width="200.874" height="147.35" viewBox="0 0 200.874 147.35">
  <g id="Group_35" data-name="Group 35" transform="translate(-253.367 -667.345)">
    <path id="Path_5110" data-name="Path 5110" d="M107.958,890.516l-9.107-14.844H92.9v30.416h6.388v-10.3q0-4.3-.2-7.387c-.04-.635-.1-1.263-.156-1.888l7.434,11.709h2.912l7.692-11.9c-.074.776-.149,1.552-.2,2.336q-.2,3.171-.195,7.126v10.3h6.387V875.672H117.23Z" transform="translate(160.469 -91.828)" fill="#6420d7"/>
    <path id="Path_5111" data-name="Path 5111" d="M165.442,893.357h12.035v-5.562H165.442v-6.387h14.121v-5.736H159.055v30.416h20.813v-5.736H165.442Z" transform="translate(136.591 -91.828)" fill="#6420d7"/>
    <path id="Path_5112" data-name="Path 5112" d="M226.219,890.493a13.082,13.082,0,0,0-3.28-1.933,22.488,22.488,0,0,0-4.3-1.282,15.736,15.736,0,0,1-2.3-.565,7.966,7.966,0,0,1-1.76-.8,3.544,3.544,0,0,1-1.108-1.065,2.516,2.516,0,0,1-.391-1.391,2.626,2.626,0,0,1,.564-1.673,3.446,3.446,0,0,1,1.63-1.086,7.484,7.484,0,0,1,2.455-.369,7.637,7.637,0,0,1,3.737.956,9.45,9.45,0,0,1,3.085,2.824l4.171-4.084a11.032,11.032,0,0,0-4.28-3.911,14.68,14.68,0,0,0-6.8-1.391,13.233,13.233,0,0,0-5.562,1.152,10.3,10.3,0,0,0-4.041,3.172,7.616,7.616,0,0,0-1.521,4.714,9.649,9.649,0,0,0,.587,3.454,7.363,7.363,0,0,0,1.8,2.716,10.656,10.656,0,0,0,3.042,2,21.049,21.049,0,0,0,4.258,1.347q1.129.218,2.086.478a10.672,10.672,0,0,1,1.738.629,6.708,6.708,0,0,1,1.346.826,3.3,3.3,0,0,1,.869,1.043,2.746,2.746,0,0,1,.3,1.282,2.322,2.322,0,0,1-.629,1.607,4.185,4.185,0,0,1-1.7,1.086,6.964,6.964,0,0,1-2.411.391,9.934,9.934,0,0,1-4.541-1.064,12.582,12.582,0,0,1-4.236-4.02l-4.084,4.606a14.724,14.724,0,0,0,5.192,4.5,15.838,15.838,0,0,0,7.278,1.542,14.7,14.7,0,0,0,6.084-1.173,9.537,9.537,0,0,0,4.084-3.345,9.126,9.126,0,0,0,1.478-5.258,7.288,7.288,0,0,0-.739-3.3,8.044,8.044,0,0,0-2.108-2.607" transform="translate(120.025 -91.484)" fill="#6420d7"/>
    <path id="Path_5113" data-name="Path 5113" d="M279.827,890.6a9.065,9.065,0,0,0-2.176-1.168,6.555,6.555,0,0,0,2.437-1.938,6.82,6.82,0,0,0,1.325-4.259,7.274,7.274,0,0,0-1.108-4.106,7.012,7.012,0,0,0-3.193-2.564,13.207,13.207,0,0,0-5.171-.891H258.732v30.416h13.644a15.61,15.61,0,0,0,4.344-.565,9.377,9.377,0,0,0,3.368-1.716,7.622,7.622,0,0,0,2.172-2.867,9.743,9.743,0,0,0,.761-3.976,7.715,7.715,0,0,0-.847-3.65,7.96,7.96,0,0,0-2.347-2.716m-14.838-9.277h5.822a4.892,4.892,0,0,1,3.151.87,2.966,2.966,0,0,1,1.065,2.433,3.24,3.24,0,0,1-.478,1.76,3.159,3.159,0,0,1-1.325,1.173,4.67,4.67,0,0,1-2.064.413h-6.169Zm10.385,18.141a4.941,4.941,0,0,1-3.259.978h-7.126v-7.213H271.9a7.052,7.052,0,0,1,2.476.391,3.394,3.394,0,0,1,1.608,1.173,3.185,3.185,0,0,1,.565,1.912,3.391,3.391,0,0,1-1.173,2.759" transform="translate(100.613 -91.828)" fill="#6420d7"/>
    <path id="Path_5114" data-name="Path 5114" d="M319.022,875.672l-11.949,30.416h6.474l2.4-6.387h11.7l2.406,6.387h6.648l-11.862-30.416Zm-1.08,18.728,1.732-4.606q.347-.955.717-2t.738-2.172q.369-1.129.7-2.195l.005-.015q.307,1.037.669,2.166.39,1.217.76,2.3t.63,1.825l1.767,4.693Z" transform="translate(83.165 -91.828)" fill="#6420d7"/>
    <path id="Path_5115" data-name="Path 5115" d="M386.18,887.925H373.492V875.672h-6.518v30.416h6.518V893.922H386.18v12.166H392.7V875.672H386.18Z" transform="translate(61.544 -91.828)" fill="#6420d7"/>
    <path id="Path_5116" data-name="Path 5116" d="M272.39,721.01V693.374H197.3a43.137,43.137,0,1,0,0,86.273h16.452A58.7,58.7,0,0,0,272.39,721.01m-58.638,47.773H197.3a32.273,32.273,0,1,1,0-64.545h42.817v7.928A13.481,13.481,0,0,0,253.6,725.647h7.7a47.837,47.837,0,0,1-47.545,43.137" transform="translate(138.356 -26.029)" fill="#6420d7"/>
    <path id="Path_5117" data-name="Path 5117" d="M266.079,752.371h-.026c-1.91.009-3.822,0-5.732,0-1.936,0-3.871-.008-5.806,0a5.432,5.432,0,0,0,.024,10.864h.026c1.911-.008,3.822,0,5.732,0q1.673,0,3.345.005,1.231,0,2.462-.005a5.432,5.432,0,0,0-.024-10.864" transform="translate(104.087 -47.322)" fill="#6420d7"/>
    <path id="Path_5118" data-name="Path 5118" d="M216.291,752.371h-.026c-1.909.009-3.822,0-5.732,0-1.936,0-3.871-.008-5.807,0a5.432,5.432,0,0,0,.024,10.864h.026c1.91-.009,3.822,0,5.732,0q1.673,0,3.345.005,1.231,0,2.462-.005a5.432,5.432,0,0,0-.024-10.864" transform="translate(122.058 -47.322)" fill="#6420d7"/>
  </g>
</svg>
